<?xml version="1.0" standalone="no"?>
<!DOCTYPE svg PUBLIC "-//W3C//DTD SVG 20010904//EN"
 "http://www.w3.org/TR/2001/REC-SVG-20010904/DTD/svg10.dtd">
<svg version="1.0" xmlns="http://www.w3.org/2000/svg"
 width="1280.000000pt" height="775.000000pt" viewBox="0 0 1280.000000 775.000000"
 preserveAspectRatio="xMidYMid meet">
<metadata>
Created by potrace 1.15, written by Peter Selinger 2001-2017
</metadata>
<g transform="translate(0.000000,775.000000) scale(0.100000,-0.100000)"
fill="#000000" stroke="none">
<path d="M4951 7630 c-26 -22 -46 -26 -35 -7 4 6 -4 1 -19 -12 l-26 -23 6 23
c6 24 6 24 -16 5 -12 -11 -30 -20 -40 -21 -10 0 -33 -13 -51 -28 -34 -29 -61
-37 -40 -12 21 25 3 17 -35 -16 -19 -17 -35 -28 -35 -24 0 4 -7 2 -15 -5 -12
-10 -15 -10 -15 0 0 9 -3 10 -13 1 -8 -6 -17 -8 -20 -4 -4 3 -7 2 -7 -4 0 -6
-9 -13 -20 -16 -22 -6 -28 8 -7 16 6 2 9 7 6 11 -4 4 -21 -6 -40 -21 -18 -15
-30 -22 -25 -15 4 6 3 12 -3 12 -5 0 -15 -8 -20 -17 -8 -14 -11 -15 -11 -3 0
11 -4 10 -16 -5 -16 -19 -16 -19 -9 5 l7 25 -28 -25 c-16 -14 -32 -29 -35 -33
-3 -5 -9 -1 -12 7 -10 25 -45 -1 -53 -39 l-7 -30 -9 25 c-8 22 -10 23 -19 8
-11 -20 -29 -24 -29 -7 0 5 6 7 13 3 9 -6 9 -4 0 6 -11 12 -15 11 -28 -6 -12
-16 -14 -16 -9 -1 3 9 1 17 -5 17 -6 0 -11 -7 -11 -15 0 -9 -7 -18 -16 -22 -8
-3 -13 -12 -10 -19 3 -7 1 -16 -4 -19 -6 -4 -10 4 -11 17 0 13 -3 17 -6 10 -2
-6 -9 -10 -14 -6 -5 3 -9 0 -9 -6 0 -7 -7 -10 -15 -6 -8 3 -14 0 -12 -7 1 -7
-4 -11 -10 -10 -7 2 -13 -4 -13 -12 0 -8 -5 -15 -11 -15 -5 0 -7 -5 -3 -12 4
-7 3 -8 -4 -4 -6 4 -19 -1 -29 -11 -17 -18 -19 -18 -35 2 -16 20 -17 20 -27
-8 -6 -16 -14 -26 -18 -24 -5 3 -13 -1 -20 -8 -10 -11 -10 -15 0 -18 7 -3 5
-6 -5 -6 -9 -1 -19 -7 -21 -13 -4 -10 -8 -10 -15 1 -8 11 -12 10 -23 -7 -12
-19 -14 -19 -25 -4 -12 15 -12 14 -7 -5 3 -16 1 -23 -8 -23 -8 0 -27 -16 -44
-35 -16 -20 -34 -34 -41 -31 -7 3 -15 -2 -18 -10 -3 -8 -10 -13 -15 -12 -5 2
-19 -8 -32 -22 -13 -14 -31 -25 -39 -25 -8 0 -14 -5 -13 -12 2 -7 -6 -10 -17
-8 -10 2 -24 -3 -31 -11 -6 -8 -19 -14 -28 -14 -9 0 -30 -14 -48 -30 -18 -17
-36 -30 -40 -30 -4 0 -21 -13 -36 -30 -16 -16 -33 -30 -38 -30 -5 0 -9 -8 -10
-17 0 -11 -3 -13 -6 -6 -7 18 -30 -7 -39 -42 -5 -19 -9 -23 -15 -14 -6 11 -13
9 -32 -9 -13 -12 -27 -19 -31 -15 -5 5 -5 -2 -2 -14 5 -16 2 -23 -14 -28 -12
-4 -20 -15 -20 -28 0 -15 -3 -18 -11 -10 -16 16 -37 -5 -32 -32 2 -11 1 -14
-3 -8 -4 10 -9 9 -20 -2 -9 -8 -13 -19 -10 -24 4 -5 -5 -23 -20 -40 -14 -17
-23 -35 -19 -41 3 -5 -1 -10 -9 -10 -9 0 -15 -3 -14 -7 3 -15 -14 -43 -23 -37
-5 3 -9 -3 -9 -14 0 -10 -9 -28 -20 -40 -11 -12 -20 -26 -20 -32 0 -6 -5 -8
-10 -5 -6 4 -10 3 -9 -2 5 -27 -3 -39 -25 -38 -13 0 -28 3 -32 8 -4 4 -18 -3
-31 -15 -16 -15 -23 -17 -23 -7 0 9 -8 5 -21 -11 -17 -20 -20 -21 -14 -5 5 17
3 17 -20 -5 -19 -18 -24 -20 -19 -7 3 10 1 17 -5 17 -6 0 -11 -4 -11 -10 0 -5
-15 -10 -33 -10 -18 0 -38 -5 -45 -12 -9 -9 -12 -8 -12 7 0 18 -1 18 -20 0
-20 -18 -21 -18 -15 1 6 15 3 14 -16 -6 -16 -18 -20 -20 -16 -7 6 15 3 17 -16
11 -12 -3 -27 -11 -34 -16 -8 -7 -10 -3 -6 14 6 23 6 23 -15 4 -12 -10 -28
-16 -36 -13 -9 4 -20 -1 -26 -11 -10 -14 -11 -13 -6 8 l5 25 -19 -25 -20 -25
0 25 -1 25 -13 -24 c-12 -21 -14 -22 -20 -5 -4 10 -10 14 -14 9 -12 -16 -47
-41 -38 -27 4 6 2 12 -3 12 -6 0 -11 -5 -11 -12 0 -6 -3 -9 -6 -5 -4 3 -19 0
-34 -8 -15 -8 -31 -11 -35 -7 -5 4 -5 -1 -2 -10 3 -10 3 -17 -1 -16 -22 6 -52
-18 -73 -57 -13 -25 -30 -45 -36 -45 -17 0 -17 -17 0 -23 6 -3 3 -6 -8 -6 -13
-1 -16 -4 -8 -9 10 -6 9 -14 -2 -35 -9 -17 -10 -27 -3 -27 7 0 6 -5 -1 -14 -8
-9 -8 -16 -2 -20 5 -4 9 -25 8 -49 -1 -46 22 -137 36 -137 4 0 6 -4 3 -9 -3
-5 1 -11 9 -15 9 -3 15 -19 16 -38 0 -18 3 -28 6 -21 3 10 7 10 18 0 7 -7 11
-15 8 -19 -2 -4 3 -5 11 -2 11 4 16 0 16 -11 0 -9 9 -19 19 -22 13 -3 18 -10
13 -21 -5 -15 -4 -15 12 -3 15 13 18 12 23 -7 3 -12 9 -22 13 -22 5 0 15 -7
23 -15 8 -8 21 -16 28 -17 8 -2 73 -62 145 -134 l131 -132 -10 -63 c-8 -47 -7
-64 1 -67 7 -2 10 -13 6 -28 -4 -15 -2 -24 5 -24 6 0 11 8 11 18 0 14 2 15 10
2 5 -9 5 -19 -2 -28 -6 -7 -12 -41 -14 -75 -2 -51 -1 -58 8 -37 l10 25 10 -30
c5 -16 9 -52 9 -80 1 -35 3 -44 9 -30 5 14 8 3 8 -33 1 -63 9 -93 31 -109 14
-11 14 -12 1 -13 -12 0 -12 -2 -2 -8 10 -7 10 -15 2 -36 -7 -20 -7 -25 1 -20
8 5 9 -6 5 -37 -6 -41 -6 -43 9 -25 15 19 15 19 15 -5 0 -13 4 -29 8 -35 11
-17 40 -24 46 -11 2 7 5 -13 6 -43 2 -43 4 -50 10 -30 8 24 8 24 9 -6 1 -35
-30 -56 -64 -44 -23 8 -159 1 -265 -15 -19 -3 -53 -7 -75 -10 -92 -11 -263
-49 -294 -65 -33 -17 -102 -40 -121 -40 -11 0 -20 -4 -20 -8 0 -5 -25 -16 -56
-26 -30 -10 -63 -26 -72 -36 -8 -11 -19 -17 -24 -14 -4 3 -8 0 -8 -7 0 -7 -3
-10 -6 -6 -3 3 -15 -3 -27 -14 -11 -10 -27 -19 -34 -19 -7 0 -17 -9 -23 -20
-6 -11 -18 -20 -26 -20 -8 0 -13 -4 -9 -9 3 -5 -4 -13 -16 -16 -11 -4 -18 -9
-15 -13 3 -3 -3 -11 -14 -19 -11 -8 -20 -20 -20 -28 0 -8 -6 -18 -14 -22 -7
-4 -24 -28 -36 -53 -19 -38 -23 -64 -26 -164 -3 -103 -1 -125 18 -167 11 -27
24 -46 29 -44 4 3 17 -12 27 -34 l19 -39 -36 -5 c-20 -3 -411 -41 -868 -84
l-833 -78 0 -848 0 -848 32 6 c18 3 175 25 348 50 340 47 2604 373 3330 479
245 35 446 63 447 62 2 -1 6 -29 9 -62 6 -60 11 -99 14 -99 1 0 11 -106 11
-120 -5 -220 -5 -422 1 -465 3 -30 9 -75 12 -100 3 -25 10 -72 15 -105 5 -33
13 -91 16 -130 9 -98 38 -213 66 -260 47 -79 152 -153 228 -162 18 -2 46 -10
62 -18 37 -20 128 -19 157 1 12 8 25 13 30 10 16 -10 70 23 90 56 11 18 32 74
47 123 28 95 27 129 -3 191 -15 32 -15 37 0 62 22 36 35 118 47 292 6 80 13
181 16 225 9 110 7 145 -8 190 -16 49 -27 195 -15 195 4 0 8 7 8 15 0 8 5 15
10 15 6 0 10 13 10 30 0 23 7 33 30 45 50 26 65 97 34 157 -9 17 -12 34 -7 38
4 4 60 15 123 24 63 8 661 94 1329 191 667 96 1220 175 1228 175 8 0 12 -4 9
-9 -3 -5 1 -12 10 -15 14 -5 14 -9 3 -23 -8 -10 -9 -14 -2 -10 8 5 10 -5 8
-38 -3 -32 -1 -44 7 -39 7 5 9 0 5 -15 -3 -12 2 -39 10 -59 9 -20 17 -44 18
-52 1 -8 12 -46 24 -85 28 -87 37 -214 21 -275 -7 -25 -12 -73 -12 -108 1 -34
-2 -62 -6 -62 -4 0 -8 -18 -8 -40 -1 -22 -7 -47 -14 -55 -9 -11 -9 -15 -1 -15
7 0 9 -4 6 -10 -9 -15 -35 -118 -35 -141 0 -10 -4 -27 -10 -37 -5 -9 -15 -37
-21 -62 -7 -25 -14 -49 -15 -55 -11 -33 -55 -162 -61 -175 -3 -8 -7 -17 -8
-20 -9 -26 -18 -48 -25 -62 -20 -36 -52 -231 -47 -281 10 -101 22 -121 136
-236 99 -99 137 -131 157 -131 4 0 -2 9 -15 21 -31 29 -19 35 22 10 19 -11 49
-21 67 -21 17 0 43 -9 57 -20 32 -25 52 -26 30 -2 -26 29 -20 34 16 12 96 -59
205 30 226 186 10 68 27 123 55 174 29 53 40 119 42 265 2 149 11 322 19 360
10 56 19 121 16 134 -1 7 2 11 7 8 4 -3 6 7 4 24 -2 16 0 35 6 42 5 6 8 23 7
37 -1 14 2 33 7 42 7 14 5 16 -9 11 -17 -5 -17 -5 -1 8 11 9 19 33 21 67 2 29
7 55 11 59 3 3 1 12 -5 20 -9 10 -8 13 1 13 7 0 10 8 7 20 -3 10 1 27 8 37 9
13 10 22 3 30 -6 7 -7 21 -3 30 4 10 8 46 9 80 0 34 4 65 8 69 4 4 3 13 -3 21
-7 8 -8 13 -1 13 5 0 9 14 8 30 -1 17 0 30 3 30 11 0 7 65 -3 72 -8 5 -7 8 1
8 15 0 10 115 -7 180 -15 54 -19 125 -9 141 7 12 1192 188 1269 189 25 0 39
-6 48 -21 7 -12 16 -18 19 -15 12 11 33 -17 33 -43 0 -20 2 -23 10 -11 11 16
13 8 10 -29 -1 -17 2 -22 13 -18 16 6 47 -21 47 -42 0 -7 7 -19 15 -27 8 -9
15 -11 15 -5 0 6 4 11 9 11 5 0 8 -13 7 -29 -1 -20 2 -27 11 -24 8 3 13 -2 13
-12 0 -11 5 -15 15 -11 12 4 14 0 9 -22 -4 -19 -3 -23 4 -13 6 8 12 9 16 3 3
-6 -2 -18 -11 -28 -17 -17 -17 -18 1 -11 13 5 17 3 13 -7 -4 -10 0 -14 13 -11
14 3 18 -1 15 -16 -3 -17 6 -24 28 -20 4 0 7 -15 7 -35 0 -19 4 -33 9 -29 5 3
11 -7 13 -22 2 -19 8 -28 21 -27 10 1 17 -5 17 -17 0 -10 5 -19 10 -19 6 0 10
-7 10 -15 0 -8 5 -15 11 -15 6 0 9 -7 6 -14 -4 -11 -1 -13 10 -9 11 4 14 2 9
-5 -8 -14 17 -55 28 -45 4 4 4 -1 0 -10 -4 -11 0 -25 10 -36 9 -10 13 -20 10
-24 -4 -3 1 -13 10 -22 9 -9 16 -28 16 -43 1 -26 1 -27 16 -7 16 20 16 20 9
-2 -4 -16 0 -26 14 -35 12 -7 21 -20 21 -29 0 -9 9 -26 20 -39 11 -13 20 -29
20 -36 0 -7 9 -16 20 -19 15 -5 19 -12 15 -25 -3 -10 4 -35 15 -55 12 -21 22
-50 23 -66 1 -16 7 -29 12 -29 12 0 13 -179 1 -199 -6 -10 -5 -12 2 -7 16 9
15 -7 0 -22 -9 -9 -9 -12 0 -12 6 0 9 -7 6 -15 -4 -9 -1 -15 7 -15 8 0 5 -6
-7 -15 -11 -8 -14 -14 -6 -15 10 0 10 -5 2 -21 -7 -11 -9 -23 -6 -26 3 -3 1
-14 -5 -24 -5 -11 -6 -19 -1 -19 10 0 9 -36 -1 -46 -3 -4 -2 -14 3 -24 5 -10
6 -20 3 -24 -3 -3 -6 -22 -5 -41 1 -19 -3 -37 -8 -40 -14 -9 -13 -45 1 -45 8
0 8 -5 -1 -15 -9 -11 -9 -15 -1 -15 9 0 9 -5 1 -20 -8 -15 -8 -20 1 -20 8 0 8
-4 -1 -15 -6 -8 -8 -20 -4 -27 11 -17 11 -39 1 -62 -6 -13 -6 -16 2 -12 6 4
11 2 11 -3 0 -6 -6 -11 -12 -11 -9 0 -8 -4 2 -10 9 -6 11 -13 5 -17 -14 -11
-17 -33 -4 -33 5 0 7 -5 3 -12 -4 -6 -9 -34 -10 -62 -2 -28 -6 -71 -9 -96 -3
-25 -7 -55 -8 -68 -2 -13 -9 -27 -17 -32 -12 -8 -12 -10 -1 -10 11 0 11 -3 1
-15 -10 -12 -10 -15 1 -15 10 0 11 -3 3 -8 -7 -4 -15 -25 -18 -46 -4 -22 -11
-45 -16 -51 -5 -7 -7 -15 -3 -18 3 -4 2 -12 -4 -19 -5 -7 -9 -50 -9 -95 1 -46
-3 -83 -7 -83 -5 0 -6 -4 -3 -8 5 -9 19 -95 20 -124 0 -10 3 -18 6 -18 3 0 14
-17 23 -39 10 -21 30 -52 45 -68 15 -16 34 -43 44 -59 15 -27 87 -78 97 -69 2
3 -7 13 -20 24 -28 23 -14 28 15 6 11 -8 26 -15 33 -15 8 0 26 -9 41 -20 15
-11 43 -24 62 -30 32 -9 33 -8 16 5 -11 8 -23 15 -28 15 -4 0 -8 5 -8 10 0 6
13 4 30 -5 48 -25 88 -17 135 26 19 17 24 17 62 4 34 -12 48 -12 75 -2 69 25
108 72 108 131 0 24 2 26 15 16 15 -13 14 -14 81 44 39 34 64 86 64 133 0 11
8 27 17 34 15 12 16 12 11 -8 -5 -20 -4 -21 13 -12 11 5 24 7 29 4 6 -3 10 1
10 10 0 12 5 15 16 11 12 -4 15 -2 10 9 -3 8 -1 15 4 15 9 0 15 -30 11 -52 -3
-19 15 -5 26 19 10 20 10 30 1 40 -9 11 -7 12 7 7 12 -5 16 -4 11 4 -3 6 -1
14 5 17 5 4 8 13 5 21 -7 19 10 27 34 14 17 -9 19 -8 13 7 -4 10 -11 21 -17
25 -8 5 -7 8 1 8 7 0 10 13 7 38 l-4 37 15 -30 15 -30 -3 37 c-2 21 2 39 8 42
6 2 5 9 -4 17 -12 12 -13 12 -6 0 5 -10 4 -12 -4 -7 -17 11 -2 29 18 21 10 -4
8 1 -6 15 -13 11 -23 26 -23 33 0 7 3 8 8 2 12 -16 32 -16 26 0 -4 8 -11 15
-18 15 -6 0 -5 4 4 9 8 6 19 7 25 4 5 -3 -3 8 -19 25 -27 30 -26 45 2 22 9 -7
9 -7 2 2 -15 18 -12 31 6 24 12 -5 10 2 -7 31 l-23 36 22 15 c16 11 19 18 12
37 -10 26 -7 86 5 105 5 9 4 11 -3 6 -20 -12 -13 9 7 24 19 13 19 36 0 25 -5
-3 -6 1 -3 9 3 9 11 13 18 10 6 -3 2 2 -8 10 -11 9 -15 16 -10 16 14 0 14 31
1 47 -6 9 -5 18 4 29 10 13 10 17 -1 24 -7 5 -15 16 -16 25 -2 15 0 15 19 -2
19 -16 20 -16 8 0 -11 14 -11 17 0 17 8 0 -1 8 -19 17 -22 11 -29 19 -21 24 7
4 18 5 25 2 6 -2 15 0 19 6 3 6 0 9 -8 5 -8 -3 -17 2 -20 10 -4 10 -1 13 9 9
9 -3 14 2 14 17 0 11 5 18 10 15 6 -3 10 -4 10 0 0 3 -10 10 -22 15 -18 7 -19
9 -6 9 13 1 17 7 14 24 -2 12 -9 21 -16 19 -6 -1 -9 2 -5 8 3 5 13 10 21 10
12 0 12 3 -1 24 -12 17 -13 25 -4 28 8 3 7 9 -5 20 -26 27 -19 40 12 21 l27
-17 -25 29 c-14 15 -19 25 -12 21 14 -8 17 10 2 19 -5 3 -6 13 -3 21 3 9 0 20
-8 25 -11 7 -10 9 5 9 20 0 20 0 0 15 -10 8 -14 15 -9 14 26 -3 28 3 5 17 -14
8 -17 13 -7 10 20 -6 23 14 5 32 -9 9 -9 12 0 12 8 0 9 7 2 26 -13 32 -12 37
0 29 6 -3 10 -1 10 4 0 6 -7 11 -15 11 -8 0 -15 5 -15 11 0 5 5 7 11 3 9 -5
10 1 5 20 -4 18 -3 25 4 21 13 -8 13 11 0 36 -6 10 -7 19 -2 19 10 0 10 60 -1
77 -4 6 0 14 8 17 14 5 14 8 -1 31 -9 14 -12 25 -7 25 17 0 7 42 -14 66 -12
13 -18 24 -13 24 5 0 12 -5 15 -10 3 -5 11 -10 17 -10 6 0 4 8 -5 18 -22 24
-22 36 -1 28 14 -5 15 -4 5 8 -7 8 -9 21 -5 27 4 7 -1 18 -11 26 -18 13 -18
13 0 13 18 0 18 1 -1 15 -18 15 -18 15 0 8 14 -5 17 -3 11 7 -10 16 -14 80 -5
80 3 0 5 12 4 27 -1 16 -3 28 -4 28 -2 0 -10 50 -13 80 -2 11 2 23 8 27 6 5 4
8 -5 8 -9 0 -16 9 -17 19 -1 13 3 18 12 15 10 -4 12 0 8 15 -3 12 -10 21 -15
21 -5 0 -6 5 -3 10 4 6 11 8 16 5 5 -3 6 1 3 9 -3 9 -10 13 -15 10 -5 -3 -6 2
-3 10 3 9 10 13 15 10 15 -9 10 8 -8 28 -14 16 -15 21 -4 28 11 6 10 9 -5 13
-16 4 -15 5 4 6 22 1 22 2 6 26 -9 14 -12 25 -8 25 5 0 3 4 -5 9 -9 6 -10 14
-5 22 12 19 13 89 1 89 -5 0 -4 7 4 16 10 13 10 17 -1 24 -11 7 -12 11 0 25
11 13 10 19 -10 40 -22 23 -22 25 -4 25 17 1 17 2 4 13 -17 13 -20 31 -8 43 4
4 0 13 -10 21 -16 14 -16 14 0 9 14 -4 16 -1 8 19 -6 16 -6 27 1 31 7 4 4 13
-6 24 -15 17 -14 18 22 24 134 22 1190 136 1255 136 l38 0 0 631 0 632 -37 -7
c-227 -37 -1702 -231 -1709 -223 -1 1 -5 18 -7 37 -3 19 -6 35 -7 35 -1 0 -3
10 -4 22 -2 13 1 23 6 23 5 0 6 5 2 12 -8 13 -10 70 -2 84 6 11 4 50 -6 88 -4
18 -3 26 4 21 6 -4 1 10 -10 30 -11 20 -16 34 -11 30 14 -8 4 65 -12 84 -10
12 -9 13 3 6 11 -7 10 -2 -4 19 -16 25 -16 28 -2 23 16 -6 23 8 8 17 -5 3 -9
24 -10 47 -1 23 -12 58 -24 78 -13 20 -23 40 -23 44 0 4 -7 12 -15 17 -10 7
-11 10 -2 10 10 0 10 4 0 23 -7 12 -17 25 -23 29 -5 4 -6 8 -1 8 4 0 1 11 -8
24 -11 18 -12 26 -3 29 8 2 7 9 -6 21 -9 10 -17 26 -17 37 0 10 -5 19 -11 19
-5 0 -7 5 -4 11 4 6 -1 17 -11 25 -18 13 -18 14 1 7 16 -5 14 0 -9 25 -17 18
-24 32 -17 32 7 0 3 9 -10 20 -16 13 -19 19 -10 20 9 0 -2 16 -24 39 -22 22
-43 37 -47 35 -5 -3 -8 0 -8 5 0 6 7 11 16 11 14 0 14 1 0 16 -9 8 -20 13 -25
9 -6 -3 -8 4 -6 16 3 17 0 20 -15 16 -11 -3 -18 -2 -15 3 3 4 -2 11 -11 14 -8
3 -13 10 -9 16 3 5 -4 19 -16 31 -15 15 -18 23 -9 29 8 5 3 10 -14 14 -17 4
-23 11 -20 21 4 9 0 15 -10 15 -9 0 -16 6 -16 14 0 8 -17 33 -37 56 -21 23
-38 47 -38 52 0 6 -9 14 -20 19 -14 5 -15 8 -5 9 9 1 6 5 -8 11 -13 5 -21 13
-17 18 3 5 -3 12 -14 16 -11 3 -26 17 -35 30 -9 14 -26 25 -37 25 -12 0 -23 8
-26 20 -3 11 -14 20 -25 20 -11 0 -18 5 -16 12 3 7 -22 29 -54 51 -60 40 -75
56 -35 37 22 -11 22 -11 -2 9 -12 12 -27 18 -32 15 -5 -3 -9 2 -9 10 0 15 -12
21 -33 17 -5 -1 -6 3 -2 8 7 12 -26 31 -54 31 -11 0 -36 16 -57 35 -20 19 -41
35 -46 35 -5 0 -7 4 -4 8 3 5 -11 14 -30 21 -18 7 -34 16 -34 21 0 4 -10 6
-22 3 -19 -4 -20 -3 -8 6 13 9 13 11 -3 11 -10 0 -20 7 -23 15 -4 8 -17 15
-31 15 -13 0 -22 4 -18 9 3 6 -4 8 -15 6 -23 -4 -90 21 -90 34 0 9 -33 23 -58
25 -8 1 -19 9 -26 19 -7 9 -24 17 -37 18 l-24 1 25 7 c25 7 25 7 -7 19 -18 6
-33 16 -33 21 0 6 -11 13 -25 17 -14 3 -22 11 -18 17 4 6 -2 8 -16 4 -13 -3
-20 -3 -17 1 4 3 -8 14 -26 24 -32 16 -32 17 -8 18 23 1 23 2 5 10 -11 5 -35
9 -54 9 -30 1 -32 3 -20 18 10 11 10 14 2 9 -8 -4 -13 -2 -13 4 0 7 -6 10 -14
7 -8 -3 -20 1 -26 9 -7 8 -19 14 -26 14 -8 0 -14 6 -14 13 0 9 -2 9 -8 0 -6
-10 -12 -8 -24 5 -29 32 -54 48 -67 44 -8 -3 -11 0 -7 6 4 7 -7 14 -29 18 -22
4 -34 11 -32 18 3 7 -7 13 -26 14 -18 2 -35 9 -40 17 -4 8 -16 15 -26 15 -10
0 -39 12 -64 26 -26 14 -59 27 -74 29 -15 2 -30 4 -33 4 -3 1 2 6 10 11 12 8
11 10 -7 10 -12 0 -25 5 -28 11 -4 6 -14 8 -22 5 -8 -3 -11 -1 -8 4 3 5 -17
12 -44 16 -29 4 -49 11 -48 18 1 7 -18 11 -54 11 -50 0 -55 2 -51 19 4 16 1
18 -16 14 -12 -4 -22 -2 -22 4 0 6 -16 8 -36 6 -31 -4 -33 -2 -19 8 14 10 7
12 -44 10 -49 -2 -58 0 -49 11 8 10 7 12 -3 8 -8 -2 -45 -6 -83 -8 -61 -3 -67
-2 -50 11 18 13 17 14 -6 6 -14 -4 -29 -6 -35 -5 -5 1 -31 4 -57 7 -27 3 -48
10 -48 15 0 5 -7 9 -15 9 -8 0 -15 -4 -15 -9 0 -5 -11 -4 -25 2 -14 7 -25 15
-25 19 0 4 -15 2 -32 -3 -43 -12 -88 -12 -69 0 8 5 20 7 27 4 6 -2 15 0 18 5
6 10 -85 9 -103 -2 -6 -4 -11 -1 -11 9 0 11 -7 14 -25 11 -14 -3 -25 0 -25 5
0 7 -12 8 -30 4 -19 -4 -30 -3 -30 4 0 7 -15 9 -41 6 -23 -3 -38 -1 -35 4 4 5
-4 7 -16 3 -21 -5 -22 -4 -8 13 13 17 13 18 0 10 -13 -8 -140 -15 -140 -7 0 1
10 7 23 12 18 7 14 9 -20 7 -24 -1 -43 -6 -43 -12 0 -5 -4 -3 -10 5 -11 18
-94 24 -124 8 -19 -10 -20 -10 -8 5 12 14 11 15 -17 7 -29 -8 -35 -6 -32 13 0
4 -8 7 -19 7 -11 0 -20 -4 -20 -8 0 -5 -7 -9 -15 -9 -8 0 -15 3 -15 6 0 4 -12
6 -27 5 -16 -1 -34 -3 -41 -3 -7 -1 -10 -5 -7 -11 3 -5 2 -10 -4 -10 -5 0 -12
4 -16 9 -6 11 -45 10 -45 -1 0 -4 -10 -3 -22 1 -13 5 -22 14 -20 20 2 12 -11
15 -22 4 -10 -10 -86 -11 -80 -1 3 4 -2 8 -10 8 -9 0 -16 -4 -16 -9 0 -5 -7
-12 -16 -15 -8 -3 -12 -2 -9 4 8 13 4 13 -41 -6 -34 -14 -37 -14 -25 -1 11 14
9 15 -16 12 -15 -2 -36 -4 -46 -4 -10 -1 -16 -5 -12 -10 3 -5 1 -13 -5 -16 -6
-4 -9 -1 -8 7 2 7 -4 11 -12 9 -8 -2 -48 -4 -87 -4 -40 -1 -73 -5 -73 -9 0 -4
-12 -3 -26 2 -18 7 -31 7 -40 -1 -10 -8 -19 -7 -36 5 -20 14 -23 14 -40 -1
-11 -10 -18 -12 -18 -4 0 8 -9 6 -27 -5 -27 -15 -27 -15 -8 1 19 17 19 17 -13
11 -23 -4 -31 -2 -26 6 5 7 3 8 -6 3 -20 -12 -164 -13 -172 -1 -6 8 -11 6 -18
-4 -8 -12 -10 -11 -10 6 0 18 -6 21 -37 20 -21 0 -37 4 -36 10 2 13 -35 16
-57 4 -14 -7 -17 -6 -16 7 0 10 -12 20 -33 28 -28 9 -31 13 -17 18 17 7 14 27
-5 27 -6 0 -8 -4 -5 -9 4 -5 -3 -7 -14 -4 -12 3 -19 8 -16 10 9 9 -22 33 -41
33 -11 0 -14 3 -7 8 6 4 11 15 11 24 0 13 -4 15 -19 7 -11 -6 -24 -8 -31 -5
-7 2 -3 5 8 5 39 2 -6 19 -54 20 -62 2 -89 6 -97 13 -3 4 -12 4 -20 1 -7 -3
-21 2 -30 11 -10 10 -24 14 -36 11 -10 -4 -25 -1 -33 5 -10 9 -19 9 -35 0 -12
-6 -24 -9 -28 -6 -3 3 0 6 6 6 7 0 12 5 12 11 0 7 -18 9 -51 5 -56 -6 -61 2
-8 13 31 6 31 7 -19 17 -28 6 -49 7 -46 3 6 -11 -69 -7 -83 4 -7 5 -21 6 -30
3 -12 -4 -10 1 7 15 l25 22 -27 -5 c-21 -4 -28 -1 -28 10 0 12 -4 12 -22 -4
-13 -12 -18 -13 -13 -4 5 9 0 8 -13 -4 -12 -11 -22 -15 -22 -11 0 5 -7 0 -16
-11 -8 -10 -12 -13 -8 -5 5 10 1 11 -16 6 -12 -4 -33 -8 -46 -10 -13 -1 -32
-8 -41 -16 -17 -13 -17 -13 0 7 9 11 17 23 17 27 0 9 -40 -1 -64 -16 -35 -23
-49 -10 -25 24 24 34 22 35 -10 9z m74 -30 c-3 -5 -12 -10 -18 -10 -7 0 -6 4
3 10 19 12 23 12 15 0z m-105 -4 c0 -3 -4 -8 -10 -11 -5 -3 -10 -1 -10 4 0 6
5 11 10 11 6 0 10 -2 10 -4z m-118 -28 c-7 -7 -12 -8 -12 -2 0 14 12 26 19 19
2 -3 -1 -11 -7 -17z m-436 -144 c-4 -9 -9 -15 -11 -12 -3 3 -3 13 1 22 4 9 9
15 11 12 3 -3 3 -13 -1 -22z m-1644 -2209 c-4 -26 -22 -35 -22 -12 0 10 18 37
26 37 1 0 -1 -11 -4 -25z m8372 -1981 c14 -5 14 -9 4 -22 -10 -12 -10 -14 0
-8 15 9 16 -6 0 -22 -8 -8 -8 -15 2 -26 7 -9 9 -23 6 -32 -5 -12 -2 -15 10
-10 14 5 15 4 4 -9 -7 -8 -9 -15 -5 -15 4 0 1 -7 -6 -16 -12 -15 -11 -16 11
-9 25 8 25 8 6 -14 -11 -11 -14 -21 -8 -21 6 0 9 -6 6 -13 -3 -8 1 -27 7 -43
15 -35 17 -46 10 -59 -11 -21 -10 -55 2 -48 7 4 6 -1 -2 -11 -9 -10 -11 -20
-5 -24 13 -10 16 -39 4 -47 -5 -3 -10 -12 -10 -18 0 -7 4 -6 10 3 14 22 22 6
11 -23 -9 -22 -8 -25 7 -20 15 6 14 3 -2 -16 -20 -22 -20 -22 0 -15 17 7 18 6
4 -10 -15 -19 -24 -80 -11 -71 12 7 5 -44 -8 -59 -6 -7 -8 -15 -5 -19 3 -3 -4
-3 -16 0 -16 4 -18 8 -8 14 10 7 9 9 -4 9 -10 0 -22 10 -29 21 -8 17 -8 20 1
14 7 -4 5 3 -3 16 -9 13 -18 35 -21 49 -3 14 -8 36 -11 50 -8 35 -15 102 -20
190 -9 150 -14 196 -24 221 -5 15 -7 30 -4 33 3 3 0 12 -7 21 -10 12 -10 15 1
15 10 0 10 3 1 12 -20 20 -14 27 26 31 20 2 42 4 49 5 6 1 19 -1 27 -4z m80
-725 c-3 -5 -13 -9 -22 -8 -11 0 -12 2 -4 6 6 2 10 9 7 14 -4 5 1 6 9 3 9 -3
13 -10 10 -15z m351 -1489 c3 -5 1 -10 -4 -10 -6 0 -11 5 -11 10 0 6 2 10 4
10 3 0 8 -4 11 -10z"/>
<path d="M11120 2941 c0 -6 4 -12 8 -15 5 -3 9 1 9 9 0 8 -4 15 -9 15 -4 0 -8
-4 -8 -9z"/>
<path d="M5085 7610 c-3 -6 1 -7 9 -4 18 7 21 14 7 14 -6 0 -13 -4 -16 -10z"/>
<path d="M5295 7600 c-3 -5 1 -10 9 -10 9 0 16 5 16 10 0 6 -4 10 -9 10 -6 0
-13 -4 -16 -10z"/>
<path d="M11525 910 c3 -5 8 -10 11 -10 2 0 4 5 4 10 0 6 -5 10 -11 10 -5 0
-7 -4 -4 -10z"/>
</g>
</svg>
