<?xml version="1.0" standalone="no"?>
<!DOCTYPE svg PUBLIC "-//W3C//DTD SVG 20010904//EN"
 "http://www.w3.org/TR/2001/REC-SVG-20010904/DTD/svg10.dtd">
<svg version="1.0" xmlns="http://www.w3.org/2000/svg"
 width="1280.000000pt" height="640.000000pt" viewBox="0 0 1280.000000 640.000000"
 preserveAspectRatio="xMidYMid meet">
<metadata>
Created by potrace 1.15, written by Peter Selinger 2001-2017
</metadata>
<g transform="translate(0.000000,640.000000) scale(0.100000,-0.100000)"
fill="#000000" stroke="none">
<path d="M3070 5921 l0 -469 -29 -12 c-58 -23 -66 -42 -71 -165 -5 -109 -6
-115 -39 -161 -21 -30 -39 -72 -47 -110 -7 -34 -37 -115 -67 -180 -73 -160
-80 -182 -127 -384 -71 -301 -122 -431 -182 -468 -50 -31 -241 -113 -247 -106
-3 3 -5 42 -3 86 2 66 -2 86 -18 112 -10 18 -22 51 -26 74 -9 60 -31 72 -130
72 l-82 0 -78 53 -78 52 -153 0 -153 0 0 30 c0 33 -37 221 -46 236 -3 5 -12 9
-19 9 -16 0 -17 -6 -35 -120 -20 -135 -35 -189 -58 -213 l-23 -22 -29 32 c-15
17 -54 52 -84 77 -61 49 -103 59 -127 29 -18 -21 -17 -173 1 -227 9 -28 10
-77 4 -189 -15 -293 -10 -317 113 -582 135 -290 166 -371 161 -429 -6 -66 -25
-105 -63 -126 -16 -9 -41 -37 -55 -62 -33 -60 -193 -225 -358 -368 -113 -98
-285 -282 -316 -338 -6 -9 -29 -43 -53 -76 -24 -32 -43 -67 -43 -77 0 -36 -89
-190 -191 -329 -57 -78 -123 -167 -145 -198 -28 -39 -52 -91 -77 -167 -63
-196 -71 -233 -58 -261 15 -34 14 -79 -5 -139 -8 -27 -18 -93 -21 -146 l-6
-96 47 -101 c25 -56 46 -105 46 -110 0 -4 14 -12 31 -17 26 -9 35 -21 63 -90
39 -95 78 -160 107 -175 25 -14 96 -27 214 -39 121 -13 1067 -17 1086 -5 8 5
35 9 61 9 48 0 91 27 103 64 5 16 56 18 206 4 53 -4 57 -3 83 28 23 27 27 39
22 68 -12 77 -89 133 -194 141 l-63 5 52 40 c28 22 59 47 68 56 9 9 40 28 69
43 28 14 52 31 52 36 0 5 23 16 52 25 28 8 60 22 70 32 10 9 18 14 19 12 0 -2
2 -11 4 -19 42 -191 45 -211 43 -310 -2 -82 1 -112 14 -136 18 -34 91 -103
111 -105 6 -1 73 -3 147 -4 l135 -2 26 28 c50 54 42 115 -22 176 -19 18 -51
39 -71 48 l-38 15 0 78 c0 65 -14 269 -24 352 -24 201 -67 433 -118 640 -18
74 -20 106 -16 245 3 88 2 190 -1 227 -5 49 -3 72 7 85 23 30 129 245 146 297
66 195 76 477 26 758 l-11 56 45 64 c51 74 239 428 301 568 59 131 132 355
152 460 2 13 6 27 9 29 2 2 4 -494 4 -1102 l0 -1107 3330 0 3330 0 0 1107 c0
608 2 1104 4 1102 3 -2 7 -16 9 -29 20 -105 93 -329 152 -460 62 -140 250
-494 301 -568 l45 -64 -11 -56 c-50 -281 -40 -563 26 -758 17 -52 123 -267
146 -297 10 -13 12 -36 7 -85 -3 -37 -4 -139 -1 -227 4 -139 2 -171 -16 -245
-85 -345 -141 -736 -142 -992 l0 -78 -37 -15 c-21 -9 -53 -30 -72 -48 -64 -61
-72 -122 -22 -176 l26 -28 135 2 c74 1 141 3 147 4 20 2 93 71 111 105 13 24
16 54 14 136 -2 99 1 119 43 310 2 8 4 17 4 19 1 2 9 -3 19 -12 10 -10 42 -24
70 -32 29 -9 52 -20 52 -25 0 -5 24 -22 53 -36 28 -15 59 -34 68 -43 9 -9 40
-34 68 -56 l52 -40 -63 -5 c-105 -8 -182 -64 -194 -141 -5 -29 -1 -41 22 -68
26 -31 30 -32 83 -28 150 14 201 12 206 -4 12 -37 55 -64 103 -64 26 0 53 -4
61 -9 19 -12 965 -8 1086 5 118 12 189 25 214 39 29 15 68 80 107 175 28 69
37 81 63 90 17 5 31 13 31 17 0 5 21 54 46 110 l47 101 -6 96 c-3 53 -13 119
-21 146 -19 60 -20 105 -5 139 13 28 5 65 -58 261 -25 76 -49 128 -77 167 -22
31 -88 120 -145 198 -102 139 -191 293 -191 329 0 10 -19 45 -43 77 -24 33
-47 67 -53 76 -31 56 -203 240 -316 338 -165 143 -325 308 -358 368 -14 25
-38 53 -55 62 -38 21 -57 60 -63 126 -5 58 26 139 161 429 123 265 128 289
113 582 -6 112 -5 161 4 189 18 54 19 206 1 227 -24 30 -66 20 -127 -29 -30
-25 -69 -60 -84 -77 l-29 -32 -23 22 c-23 24 -38 78 -58 213 -18 114 -19 120
-35 120 -7 0 -16 -4 -19 -9 -9 -15 -46 -203 -46 -236 l0 -30 -153 0 -153 0
-78 -52 -78 -53 -82 0 c-99 0 -121 -12 -130 -72 -4 -23 -16 -56 -26 -74 -16
-26 -20 -46 -18 -112 2 -44 0 -83 -3 -86 -6 -7 -197 75 -247 106 -60 37 -111
167 -182 468 -47 202 -54 224 -127 384 -30 65 -60 146 -67 180 -8 38 -26 80
-47 110 -33 46 -34 52 -39 161 -5 123 -13 142 -71 165 l-29 12 0 469 0 469
-3330 0 -3330 0 0 -469z m-1010 -4859 c11 -35 24 -89 30 -120 5 -31 12 -67 16
-79 5 -17 2 -23 -9 -23 -9 0 -45 -16 -82 -35 -36 -18 -72 -32 -79 -29 -7 3
-21 -5 -31 -16 -11 -12 -80 -56 -155 -98 -159 -89 -261 -178 -355 -310 -1 -1
-35 1 -75 4 l-74 7 50 23 c59 27 145 114 207 210 64 100 123 273 128 377 2 41
10 58 52 110 29 35 84 85 132 119 46 32 94 71 107 87 l23 28 47 -96 c26 -53
57 -124 68 -159z m8925 140 c49 -34 104 -84 132 -119 42 -52 50 -69 52 -110 5
-104 64 -277 128 -377 62 -96 148 -183 207 -210 l50 -23 -74 -7 c-40 -3 -74
-5 -75 -4 -94 132 -196 221 -355 310 -75 42 -144 86 -155 98 -10 11 -24 19
-31 16 -7 -3 -43 11 -79 29 -37 19 -73 35 -82 35 -11 0 -14 6 -9 23 4 12 11
48 17 79 14 85 40 162 94 274 l48 102 25 -29 c13 -16 62 -56 107 -87z"/>
</g>
</svg>
